<svg width="276" height="57" viewBox="0 0 276 57" fill="none" xmlns="http://www.w3.org/2000/svg">
<g filter="url(#filter0_d_6_493)">
<line x1="4.5" y1="2.18557e-08" x2="4.5" y2="49" stroke="black"/>
<line x1="10.75" y1="3.27835e-08" x2="10.75" y2="49" stroke="black" stroke-width="1.5"/>
<line x1="16.5" y1="6.55671e-08" x2="16.5" y2="49" stroke="black" stroke-width="3"/>
<line x1="24.5" y1="2.18557e-08" x2="24.5" y2="49" stroke="black"/>
<line x1="30.75" y1="3.27835e-08" x2="30.75" y2="49" stroke="black" stroke-width="1.5"/>
<line x1="36.5" y1="6.55671e-08" x2="36.5" y2="49" stroke="black" stroke-width="3"/>
<line x1="44.5" y1="2.18557e-08" x2="44.5" y2="49" stroke="black"/>
<line x1="50.75" y1="3.27835e-08" x2="50.75" y2="49" stroke="black" stroke-width="1.5"/>
<line x1="56.5" y1="6.55671e-08" x2="56.5" y2="49" stroke="black" stroke-width="3"/>
<line x1="64.5" y1="2.18557e-08" x2="64.5" y2="49" stroke="black"/>
<line x1="70.75" y1="3.27835e-08" x2="70.75" y2="49" stroke="black" stroke-width="1.5"/>
<line x1="76.5" y1="6.55671e-08" x2="76.5" y2="49" stroke="black" stroke-width="3"/>
<line x1="92.5" y1="2.18557e-08" x2="92.5" y2="49" stroke="black"/>
<line x1="98.75" y1="3.27835e-08" x2="98.75" y2="49" stroke="black" stroke-width="1.5"/>
<line x1="104.5" y1="6.55671e-08" x2="104.5" y2="49" stroke="black" stroke-width="3"/>
<line x1="112.5" y1="2.18557e-08" x2="112.5" y2="49" stroke="black"/>
<line x1="118.75" y1="3.27835e-08" x2="118.75" y2="49" stroke="black" stroke-width="1.5"/>
<line x1="124.5" y1="6.55671e-08" x2="124.5" y2="49" stroke="black" stroke-width="3"/>
<line x1="132.5" y1="2.18557e-08" x2="132.5" y2="49" stroke="black"/>
<line x1="138.75" y1="3.27835e-08" x2="138.75" y2="49" stroke="black" stroke-width="1.5"/>
<line x1="144.5" y1="6.55671e-08" x2="144.5" y2="49" stroke="black" stroke-width="3"/>
<line x1="152.5" y1="2.18557e-08" x2="152.5" y2="49" stroke="black"/>
<line x1="158.75" y1="3.27835e-08" x2="158.75" y2="49" stroke="black" stroke-width="1.5"/>
<line x1="164.5" y1="6.55671e-08" x2="164.5" y2="49" stroke="black" stroke-width="3"/>
<line x1="172.5" y1="2.18557e-08" x2="172.5" y2="49" stroke="black"/>
<line x1="178.75" y1="3.27835e-08" x2="178.75" y2="49" stroke="black" stroke-width="1.5"/>
<line x1="184.5" y1="6.55671e-08" x2="184.5" y2="49" stroke="black" stroke-width="3"/>
<line x1="192.5" y1="2.18557e-08" x2="192.5" y2="49" stroke="black"/>
<line x1="198.75" y1="3.27835e-08" x2="198.75" y2="49" stroke="black" stroke-width="1.5"/>
<line x1="204.5" y1="6.55671e-08" x2="204.5" y2="49" stroke="black" stroke-width="3"/>
<line x1="212.5" y1="2.18557e-08" x2="212.5" y2="49" stroke="black"/>
<line x1="218.75" y1="3.27835e-08" x2="218.75" y2="49" stroke="black" stroke-width="1.5"/>
<line x1="224.5" y1="6.55671e-08" x2="224.5" y2="49" stroke="black" stroke-width="3"/>
<line x1="232.5" y1="2.18557e-08" x2="232.5" y2="49" stroke="black"/>
<line x1="238.75" y1="3.27835e-08" x2="238.75" y2="49" stroke="black" stroke-width="1.5"/>
<line x1="244.5" y1="6.55671e-08" x2="244.5" y2="49" stroke="black" stroke-width="3"/>
<line x1="255.5" y1="1.09278e-07" x2="255.5" y2="49" stroke="black" stroke-width="5"/>
<line x1="263.5" y1="1.09278e-07" x2="263.5" y2="49" stroke="black" stroke-width="5"/>
<line x1="271.25" y1="1.09278e-08" x2="271.25" y2="49" stroke="black" stroke-width="0.5"/>
</g>
<defs>
<filter id="filter0_d_6_493" x="0" y="0" width="275.5" height="57" filterUnits="userSpaceOnUse" color-interpolation-filters="sRGB">
<feFlood flood-opacity="0" result="BackgroundImageFix"/>
<feColorMatrix in="SourceAlpha" type="matrix" values="0 0 0 0 0 0 0 0 0 0 0 0 0 0 0 0 0 0 127 0" result="hardAlpha"/>
<feOffset dy="4"/>
<feGaussianBlur stdDeviation="2"/>
<feComposite in2="hardAlpha" operator="out"/>
<feColorMatrix type="matrix" values="0 0 0 0 0 0 0 0 0 0 0 0 0 0 0 0 0 0 0.25 0"/>
<feBlend mode="normal" in2="BackgroundImageFix" result="effect1_dropShadow_6_493"/>
<feBlend mode="normal" in="SourceGraphic" in2="effect1_dropShadow_6_493" result="shape"/>
</filter>
</defs>
</svg>
