<svg width="21" height="21" viewBox="0 0 21 21" fill="none" xmlns="http://www.w3.org/2000/svg">
<path fill-rule="evenodd" clip-rule="evenodd" d="M5.41669 4.41864C4.31212 4.41864 3.41669 5.31407 3.41669 6.41864V6.99733C3.41669 7.22858 3.56376 7.43017 3.7621 7.54907C4.53721 8.01368 5.06952 8.9749 5.06952 10.0853C5.06952 11.1957 4.53721 12.1569 3.7621 12.6215C3.56376 12.7404 3.41669 12.942 3.41669 13.1733V13.752C3.41669 14.8565 4.31212 15.752 5.41669 15.752H15.5834C16.6879 15.752 17.5834 14.8565 17.5834 13.752V13.1732C17.5834 12.942 17.4363 12.7404 17.238 12.6215C16.4629 12.1569 15.9306 11.1957 15.9306 10.0853C15.9306 8.97494 16.4629 8.01375 17.238 7.54912C17.4363 7.43022 17.5834 7.22864 17.5834 6.9974V6.41864C17.5834 5.31407 16.6879 4.41864 15.5834 4.41864H5.41669ZM11.875 5.12697V7.60614C11.875 8.02035 12.2108 8.35614 12.625 8.35614C13.0392 8.35614 13.375 8.02035 13.375 7.60614V5.12697H11.875ZM13.375 12.5645C13.375 12.1503 13.0392 11.8145 12.625 11.8145C12.2108 11.8145 11.875 12.1503 11.875 12.5645V15.0436H13.375V12.5645Z" fill="#C3C3C3"/>
</svg>
